<svg height="16" width="16" xmlns="http://www.w3.org/2000/svg">
  <path d="M-22.41-3.33a2.366 2.366 0 1 1-4.733 0 2.366 2.366 0 1 1 4.732 0z" style="fill:#000;fill-opacity:1;stroke:none" transform="matrix(.84528 0 0 .84528 33.943 5.815)"/>
  <path d="M-22.41-3.33a2.366 2.366 0 1 1-4.733 0 2.366 2.366 0 1 1 4.732 0z" style="fill:#000;fill-opacity:1;stroke:none" transform="matrix(.84528 0 0 .84528 33.943 15.815)"/>
  <path d="M-22.41-3.33a2.366 2.366 0 1 1-4.733 0 2.366 2.366 0 1 1 4.732 0z" style="fill:#000;fill-opacity:1;stroke:none" transform="matrix(.84528 0 0 .84528 23.943 10.815)"/>
  <path d="M13 3 3 8l10 5" style="fill:none;stroke:#000;stroke-width:1px;stroke-linecap:butt;stroke-linejoin:miter;stroke-opacity:1"/>
</svg>
